<svg width="10.000000" height="12.000000" viewBox="0 0 10 12" fill="none" xmlns="http://www.w3.org/2000/svg" xmlns:xlink="http://www.w3.org/1999/xlink">
	<desc>
			Created with Pixso.
	</desc>
	<defs/>
	<path id="Vector" d="M4.33 5.95C3.43 5.95 2.7 5.23 2.7 4.33C2.7 3.43 3.43 2.7 4.33 2.7C5.23 2.7 5.95 3.43 5.95 4.33C5.95 5.23 5.23 5.95 4.33 5.95Z" stroke="#000000" stroke-opacity="1.000000" stroke-width="1.000000" stroke-linejoin="round"/>
	<path id="Vector" d="M1.26 1.26C0.45 2.08 0 3.18 0 4.33C0 5.35 0.21 6.02 0.81 6.77L4.33 10.83L7.85 6.77C8.44 6.02 8.66 5.35 8.66 4.33C8.66 3.18 8.21 2.08 7.39 1.26C6.58 0.45 5.48 0 4.33 0C3.18 0 2.08 0.45 1.26 1.26Z" stroke="#000000" stroke-opacity="1.000000" stroke-width="1.000000" stroke-linejoin="round"/>
</svg>
