<svg width="33.000000" height="33.000000" viewBox="0 0 33 33" fill="none" xmlns="http://www.w3.org/2000/svg" xmlns:xlink="http://www.w3.org/1999/xlink">
	<desc>
			Created with Pixso.
	</desc>
	<defs/>
	<path id="Vector" d="M16.5 16.5C18.688 16.5 20.7865 15.6308 22.3336 14.0836C23.8809 12.5365 24.75 10.438 24.75 8.25C24.75 6.06197 23.8809 3.96355 22.3336 2.41637C20.7865 0.869202 18.688 0 16.5 0C14.312 0 12.2135 0.869202 10.6664 2.41637C9.11914 3.96355 8.25 6.06197 8.25 8.25C8.25 10.438 9.11914 12.5365 10.6664 14.0836C12.2135 15.6308 14.312 16.5 16.5 16.5ZM22.2924 10.6493Q21.8347 11.7541 20.9194 12.6694Q20.0042 13.5847 18.8993 14.0424Q17.7944 14.5 16.5 14.5Q15.2056 14.5 14.1007 14.0424Q12.9958 13.5847 12.0806 12.6694Q11.1653 11.7541 10.7076 10.6493Q10.25 9.54442 10.25 8.25Q10.25 6.95558 10.7076 5.85074Q11.1653 4.74588 12.0806 3.83058Q12.9958 2.9153 14.1007 2.45764Q15.2056 2 16.5 2Q17.7944 2 18.8993 2.45764Q20.0042 2.9153 20.9194 3.83058Q21.8347 4.74588 22.2924 5.85072Q22.75 6.95558 22.75 8.25Q22.75 9.54442 22.2924 10.6493ZM2.75 33C2.75 33 0 33 0 30.25C0 27.5 2.75 19.25 16.5 19.25C30.25 19.25 33 27.5 33 30.25C33 33 30.25 33 30.25 33L2.75 33ZM2.1875 30.8125Q2 30.625 2 30.25Q2 30.1407 2.00439 30.0317Q2.10498 27.5359 4.50793 25.133Q8.39087 21.25 16.5 21.25Q24.6091 21.25 28.4921 25.133Q30.895 27.5359 30.9956 30.0317Q31 30.1407 31 30.25Q31 30.625 30.8125 30.8125Q30.625 31 30.25 31L2.75 31Q2.375 31 2.1875 30.8125Z" fill="#FFFFFF" fill-opacity="1.000000" fill-rule="evenodd"/>
</svg>
