<svg width="30.155029" height="30.155167" viewBox="0 0 30.155 30.1552" fill="none" xmlns="http://www.w3.org/2000/svg" xmlns:xlink="http://www.w3.org/1999/xlink">
	<desc>
			Created with Pixso.
	</desc>
	<defs/>
	<path id="Vector" d="M29.531 14.8305L15.8301 0.330246C15.7312 0.225555 15.614 0.142502 15.4851 0.0858307C15.3562 0.0291748 15.2178 0 15.0781 0C14.9385 0 14.8003 0.0291748 14.6714 0.0858307C14.5422 0.142502 14.425 0.225555 14.3264 0.330246L0.625244 14.8305C0.226074 15.2533 0 15.8275 0 16.4264C0 17.67 0.95459 18.6811 2.12891 18.6811L3.57251 18.6811L3.57251 29.0278C3.57251 29.6514 4.0481 30.1552 4.63696 30.1552L12.9495 30.1552L12.9495 22.2639L16.6748 22.2639L16.6748 30.1552L25.5195 30.1552C26.1084 30.1552 26.584 29.6514 26.584 29.0278L26.584 18.6811L28.0276 18.6811C28.593 18.6811 29.1353 18.445 29.5344 18.0188C30.3625 17.138 30.3625 15.7113 29.531 14.8305Z" fill="#FFC947" fill-opacity="1.000000" fill-rule="nonzero"/>
</svg>
