<svg width="32.896484" height="27.413788" viewBox="0 0 32.8965 27.4138" fill="none" xmlns="http://www.w3.org/2000/svg" xmlns:xlink="http://www.w3.org/1999/xlink">
	<desc>
			Created with Pixso.
	</desc>
	<defs/>
	<path id="Vector" d="M16.4453 3.59964C17.9167 2.13069 20.5947 0 23.729 0C29.127 0 32.8965 3.58966 32.8965 8.72815C32.8965 14.3914 28.2117 18.051 23.6841 21.5893C21.5442 23.2608 19.3328 24.9907 17.6326 26.9075C17.3484 27.227 16.9312 27.4138 16.4902 27.4138L16.4033 27.4138C15.9639 27.4138 15.5452 27.2284 15.2595 26.9075C13.5623 24.9907 11.3494 23.2622 9.21094 21.5893C4.68188 18.0496 0 14.39 0 8.72815C0 3.58966 3.76953 0 9.16919 0C12.3018 0 14.9739 2.13069 16.4453 3.59964ZM9.16919 1.82759Q12.0835 1.82759 15.1541 4.89301L16.4453 6.18211L17.7366 4.89301Q20.8069 1.82759 23.729 1.82759Q26.3552 1.82759 28.1748 3.03912Q28.6538 3.35797 29.0767 3.76074Q29.7261 4.37891 30.1636 5.12173Q31.0688 6.65825 31.0688 8.72815Q31.0688 8.97226 31.0537 9.21541Q30.874 12.0629 28.5908 14.7777Q26.9773 16.6962 22.5623 20.1465L22.5591 20.1491Q18.2966 23.4787 16.446 25.4944Q14.6108 23.4934 10.3682 20.1741L10.3364 20.1493Q5.91992 16.6977 4.30591 14.7783Q2.02246 12.0629 1.84302 9.21501Q1.82764 8.97206 1.82764 8.72815Q1.82764 6.65823 2.73291 5.12177Q3.17065 4.37895 3.81982 3.76082Q4.24219 3.3588 4.72021 3.04039Q6.54077 1.82759 9.16919 1.82759Z" fill="#FFFFFF" fill-opacity="1.000000" fill-rule="evenodd"/>
</svg>
