<svg width="9.666748" height="11.833313" viewBox="0 0 9.66675 11.8333" fill="none" xmlns="http://www.w3.org/2000/svg" xmlns:xlink="http://www.w3.org/1999/xlink">
	<desc>
			Created with Pixso.
	</desc>
	<defs/>
	<path id="Vector" d="M4.83325 6.45831C3.93579 6.45831 3.20825 5.73077 3.20825 4.83331C3.20825 3.93585 3.93579 3.20831 4.83325 3.20831C5.73071 3.20831 6.45825 3.93585 6.45825 4.83331C6.45825 5.73077 5.73071 6.45831 4.83325 6.45831Z" stroke="#FFFFFF" stroke-opacity="1.000000" stroke-width="1.000000" stroke-linejoin="round"/>
	<path id="Vector" d="M1.76929 1.76923C0.956543 2.58185 0.5 3.68408 0.5 4.83331C0.5 5.85815 0.717773 6.52875 1.3125 7.27081L4.83325 11.3333L8.35425 7.27081C8.94897 6.52875 9.16675 5.85815 9.16675 4.83331C9.16675 3.68408 8.71021 2.58185 7.89746 1.76923C7.08472 0.956543 5.98267 0.5 4.83325 0.5C3.68408 0.5 2.58179 0.956543 1.76929 1.76923Z" stroke="#FFFFFF" stroke-opacity="1.000000" stroke-width="1.000000" stroke-linejoin="round"/>
</svg>
