<svg width="26.000000" height="16.000000" viewBox="0 0 26 16" fill="none" xmlns="http://www.w3.org/2000/svg" xmlns:xlink="http://www.w3.org/1999/xlink">
	<desc>
			Created with Pixso.
	</desc>
	<defs/>
	<path id="Rectangle 17" d="M3 0L12 0L12 7L0 7L0 3C0 1.34314 1.34326 0 3 0Z" fill="#185ADB" fill-opacity="1.000000" fill-rule="evenodd"/>
	<path id="Rectangle 18" d="M3 16L12 16L12 9L0 9L0 13C0 14.6569 1.34326 16 3 16Z" fill="#185ADB" fill-opacity="1.000000" fill-rule="evenodd"/>
	<path id="Rectangle 19" d="M23 0L14 0L14 7L26 7L26 3C26 1.34314 24.6567 0 23 0Z" fill="#185ADB" fill-opacity="1.000000" fill-rule="evenodd"/>
	<path id="Rectangle 20" d="M23 16L14 16L14 9L26 9L26 13C26 14.6569 24.6567 16 23 16Z" fill="#185ADB" fill-opacity="1.000000" fill-rule="evenodd"/>
</svg>
