<svg width="13.250732" height="13.251526" viewBox="0 0 13.2507 13.2515" fill="none" xmlns="http://www.w3.org/2000/svg" xmlns:xlink="http://www.w3.org/1999/xlink">
	<desc>
			Created with Pixso.
	</desc>
	<defs/>
	<path id="Vector" d="M5.66675 11.3333C6.92383 11.3331 8.14502 10.9122 9.13525 10.1377L12.2493 13.2515L13.2507 12.2499L10.137 9.13611C10.9119 8.14557 11.333 6.92426 11.3333 5.66669C11.3333 2.54224 8.79102 0 5.66675 0C2.54224 0 0 2.54224 0 5.66669C0 8.79114 2.54224 11.3333 5.66675 11.3333ZM5.66675 1.41669C8.0105 1.41669 9.91675 3.32281 9.91675 5.66669C9.91675 8.01056 8.0105 9.91669 5.66675 9.91669C3.32275 9.91669 1.41675 8.01056 1.41675 5.66669C1.41675 3.32281 3.32275 1.41669 5.66675 1.41669Z" fill="#C7C7C7" fill-opacity="1.000000" fill-rule="nonzero"/>
</svg>
