<svg width="32.828857" height="30.469284" viewBox="0 0 32.8289 30.4693" fill="none" xmlns="http://www.w3.org/2000/svg" xmlns:xlink="http://www.w3.org/1999/xlink">
	<desc>
			Created with Pixso.
	</desc>
	<defs/>
	<path id="Vector" d="M19.4973 25.663C25.3101 25.663 28.2172 25.663 30.0222 23.8565C31.8289 22.0514 31.8289 19.1443 31.8289 13.3315C31.8289 7.51875 31.8289 4.61159 30.0222 2.80656C28.2172 1 25.3101 1 19.4973 1L13.3315 1C7.5188 1 4.61157 1 2.80652 2.80656C1 4.61159 1 7.51875 1 13.3315C1 19.1443 1 22.0514 2.80652 23.8565C3.81311 24.8646 5.16187 25.31 7.16577 25.5058" stroke="#FFFFFF" stroke-opacity="1.000000" stroke-width="2.000000" stroke-linejoin="round" stroke-linecap="round"/>
	<path id="Vector" d="M19.4972 25.6631C17.592 25.6631 15.4926 26.4338 13.5765 27.428C10.4968 29.0265 8.95691 29.8265 8.19849 29.3163C7.44006 28.8076 7.5835 27.2276 7.8717 24.0692L7.9364 23.3509" stroke="#FFFFFF" stroke-opacity="1.000000" stroke-width="2.000000" stroke-linecap="round"/>
</svg>
