<svg width="20.000000" height="17.000000" viewBox="0 0 20 17" fill="none" xmlns="http://www.w3.org/2000/svg" xmlns:xlink="http://www.w3.org/1999/xlink">
	<desc>
			Created with Pixso.
	</desc>
	<defs/>
	<path id="Vector" d="M9.72803 1.96686C8.79688 1.08533 7.30078 0 5.57446 0C2.29175 0 0 2.22604 0 5.41254C0 8.92365 2.84644 11.193 5.6001 13.3881C6.8999 14.4255 8.24536 15.4974 9.27734 16.686C9.45093 16.885 9.70557 17 9.97266 17L10.0254 17C10.2937 17 10.5474 16.8842 10.72 16.686C11.7537 15.4974 13.0981 14.4246 14.3992 13.3881C17.1519 11.1939 20 8.9245 20 5.41254C20 2.22604 17.7083 0 14.4263 0C12.6978 0 11.1975 1.08728 10.2661 1.96921C10.1707 2.05951 10.0813 2.14764 9.99829 2.23224C9.91431 2.14691 9.82422 2.05795 9.72803 1.96686ZM7.65845 1.63672Q8.49365 2.12738 9.28467 2.93289L9.99829 3.65945L10.7117 2.93289Q11.5017 2.12848 12.3394 1.63702Q13.4248 1 14.4263 1Q15.4568 1 16.3247 1.33173Q16.9915 1.58655 17.5122 2.01782Q17.6335 2.11847 17.7471 2.2287Q17.9583 2.43375 18.1348 2.66519Q18.457 3.08765 18.6638 3.59808Q19 4.42773 19 5.41254Q19 5.86557 18.9238 6.30542Q18.8232 6.88684 18.5896 7.44528Q18.2134 8.34506 17.4612 9.25732Q16.8086 10.0488 15.7761 10.9584Q15.3542 11.3301 14.7991 11.7836Q14.4626 12.0586 13.7778 12.6044L13.7759 12.606Q12.4524 13.6606 11.803 14.2256Q10.7239 15.1644 9.99878 15.9918Q9.27783 15.1682 8.20508 14.2341Q7.56445 13.6763 6.24268 12.6215L6.23779 12.6177L6.23682 12.6168L6.2356 12.6159L6.23438 12.6149L6.23315 12.614L6.23193 12.613L6.23071 12.6121L6.22974 12.6112L6.22852 12.6102L6.22729 12.6093L6.22607 12.6083L6.22485 12.6074L6.22339 12.6061Q5.53857 12.0602 5.20166 11.7849Q4.64648 11.3311 4.22437 10.9593Q3.19165 10.0494 2.53906 9.25769Q1.78662 8.34528 1.4104 7.44537Q1.17676 6.88699 1.07617 6.3056Q1 5.86566 1 5.41254Q1 4.4277 1.33618 3.59808Q1.54297 3.0878 1.86499 2.66544Q2.04175 2.4339 2.25293 2.22876Q2.36597 2.11887 2.48706 2.01852Q3.00806 1.58676 3.67554 1.33176Q4.5437 1 5.57446 1Q6.57495 1 7.65845 1.63672Z" fill="#FFFFFF" fill-opacity="1.000000" fill-rule="evenodd"/>
</svg>
